<svg
    class="card_arrow"
   width="116.44312mm"
   height="116.44313mm"
   viewBox="0 0 116.44312 116.44313"
   version="1.1"
   id="svg5"
   xml:space="preserve"
   xmlns:inkscape="http://www.inkscape.org/namespaces/inkscape"
   xmlns:sodipodi="http://sodipodi.sourceforge.net/DTD/sodipodi-0.dtd"
   xmlns="http://www.w3.org/2000/svg"
   xmlns:svg="http://www.w3.org/2000/svg"><sodipodi:namedview
     id="namedview7"
     pagecolor="#ffffff"
     bordercolor="#000000"
     borderopacity="0.25"
     inkscape:showpageshadow="2"
     inkscape:pageopacity="0.0"
     inkscape:pagecheckerboard="0"
     inkscape:deskcolor="#d1d1d1"
     inkscape:document-units="mm"
     showgrid="false" /><defs
     id="defs2" /><g
     id="g138"
     transform="matrix(0.26458333,0,0,0.26458334,-5.0620426e-6,0)">
                            <path
   class="card-arrow-outside"
   id="autour_fleche_1_"
   d="M 0,220.1 C 0,98.6 98.4,0 220,0 c 121.5,0 220.1,98.5 220.1,220 0,121.5 -98.5,220.1 -220,220.1 C 98.6,440.2 0,341.6 0,220.1 Z m 259.7,-20 c -44.1,0 -88.3,-0.1 -132.4,0 -15.7,0 -25.5,15.5 -18.4,29 3.9,7.5 10.4,10.9 18.8,10.9 32.6,0 65.3,0 97.9,0 11.5,0 23,0 34.5,0 1.6,0 3.2,0 6.1,0 -2,2.2 -3.1,3.5 -4.3,4.8 -10.1,10.4 -20.3,20.7 -30.2,31.3 -11,11.8 -5.7,29.7 9.8,33.4 7.1,1.7 13.4,-0.3 18.3,-5.4 22.8,-23.4 45.5,-46.8 68.1,-70.4 7.6,-7.9 7.4,-19.5 -0.3,-27.5 -22.4,-23.3 -44.9,-46.5 -67.4,-69.7 -8.1,-8.3 -20.1,-8.5 -28.2,-0.7 -7.9,7.5 -8.2,19.9 -0.3,28.3 9.9,10.6 20.1,20.8 30.2,31.3 1.1,1.2 2.2,2.4 4.4,4.8 -3.1,-0.1 -4.8,-0.1 -6.6,-0.1 z" />
        <path
   id="fleche_1_"
   class="card-arrow-inside"
   d="m 266.4,200.1 c -3.2,0 -4.9,0 -6.7,0 -44.1,0 -88.3,-0.1 -132.4,0 -15.7,0 -25.5,15.5 -18.4,29 3.9,7.5 10.4,10.9 18.8,10.9 32.6,0 65.3,0 97.9,0 11.5,0 23,0 34.5,0 1.6,0 3.2,0 6.1,0 -2,2.2 -3.1,3.5 -4.3,4.8 -10.1,10.4 -20.3,20.7 -30.2,31.3 -11,11.8 -5.7,29.7 9.8,33.4 7.1,1.7 13.4,-0.3 18.3,-5.4 22.8,-23.4 45.5,-46.8 68.1,-70.4 7.6,-7.9 7.4,-19.5 -0.3,-27.5 -22.4,-23.3 -44.9,-46.5 -67.4,-69.7 -8.1,-8.3 -20.1,-8.5 -28.2,-0.7 -7.9,7.5 -8.2,19.9 -0.3,28.3 9.9,10.6 20.1,20.8 30.2,31.3 1.2,1.1 2.3,2.3 4.5,4.7 z m 0,0 c -3.2,0 -4.9,0 -6.7,0 -44.1,0 -88.3,-0.1 -132.4,0 -15.7,0 -25.5,15.5 -18.4,29 3.9,7.5 10.4,10.9 18.8,10.9 32.6,0 65.3,0 97.9,0 11.5,0 23,0 34.5,0 1.6,0 3.2,0 6.1,0 -2,2.2 -3.1,3.5 -4.3,4.8 -10.1,10.4 -20.3,20.7 -30.2,31.3 -11,11.8 -5.7,29.7 9.8,33.4 7.1,1.7 13.4,-0.3 18.3,-5.4 22.8,-23.4 45.5,-46.8 68.1,-70.4 7.6,-7.9 7.4,-19.5 -0.3,-27.5 -22.4,-23.3 -44.9,-46.5 -67.4,-69.7 -8.1,-8.3 -20.1,-8.5 -28.2,-0.7 -7.9,7.5 -8.2,19.9 -0.3,28.3 9.9,10.6 20.1,20.8 30.2,31.3 1.2,1.1 2.3,2.3 4.5,4.7 z"
   style="font-variation-settings:normal;opacity:1;vector-effect:none;fill:#000000;fill-opacity:1;stroke-width:1;stroke-linecap:butt;stroke-linejoin:miter;stroke-miterlimit:4;stroke-dasharray:none;stroke-dashoffset:0;stroke-opacity:1;-inkscape-stroke:none;stop-color:#000000;stop-opacity:1"
   inkscape:label="fleche_bellow" /><path
   id="fleche_1_-7"
   class="card-arrow-outside"
   d="m 266.4,200.1 c -3.2,0 -4.9,0 -6.7,0 -44.1,0 -88.3,-0.1 -132.4,0 -15.7,0 -25.5,15.5 -18.4,29 3.9,7.5 10.4,10.9 18.8,10.9 32.6,0 65.3,0 97.9,0 11.5,0 23,0 34.5,0 1.6,0 3.2,0 6.1,0 -2,2.2 -3.1,3.5 -4.3,4.8 -10.1,10.4 -20.3,20.7 -30.2,31.3 -11,11.8 -5.7,29.7 9.8,33.4 7.1,1.7 13.4,-0.3 18.3,-5.4 22.8,-23.4 45.5,-46.8 68.1,-70.4 7.6,-7.9 7.4,-19.5 -0.3,-27.5 -22.4,-23.3 -44.9,-46.5 -67.4,-69.7 -8.1,-8.3 -20.1,-8.5 -28.2,-0.7 -7.9,7.5 -8.2,19.9 -0.3,28.3 9.9,10.6 20.1,20.8 30.2,31.3 1.2,1.1 2.3,2.3 4.5,4.7 z m 0,0 c -3.2,0 -4.9,0 -6.7,0 -44.1,0 -88.3,-0.1 -132.4,0 -15.7,0 -25.5,15.5 -18.4,29 3.9,7.5 10.4,10.9 18.8,10.9 32.6,0 65.3,0 97.9,0 11.5,0 23,0 34.5,0 1.6,0 3.2,0 6.1,0 -2,2.2 -3.1,3.5 -4.3,4.8 -10.1,10.4 -20.3,20.7 -30.2,31.3 -11,11.8 -5.7,29.7 9.8,33.4 7.1,1.7 13.4,-0.3 18.3,-5.4 22.8,-23.4 45.5,-46.8 68.1,-70.4 7.6,-7.9 7.4,-19.5 -0.3,-27.5 -22.4,-23.3 -44.9,-46.5 -67.4,-69.7 -8.1,-8.3 -20.1,-8.5 -28.2,-0.7 -7.9,7.5 -8.2,19.9 -0.3,28.3 9.9,10.6 20.1,20.8 30.2,31.3 1.2,1.1 2.3,2.3 4.5,4.7 z"
   style="font-variation-settings:normal;vector-effect:none;fill:#000000;fill-opacity:1;stroke-width:1;stroke-linecap:butt;stroke-linejoin:miter;stroke-miterlimit:4;stroke-dasharray:none;stroke-dashoffset:0;stroke-opacity:1;-inkscape-stroke:none;stop-color:#000000"
   inkscape:label="fleche_above" />
                        </g></svg>
